<svg width="201" height="32" viewBox="0 0 201 32" fill="none" xmlns="http://www.w3.org/2000/svg">
<path fill-rule="evenodd" clip-rule="evenodd" d="M17.918 15.3291C17.871 14.5347 17.723 13.848 17.495 13.2549C16.759 11.2944 15.382 11.2436 14.299 11.1967H12.234V15.3291H6.73V7.15311H12.63C16.513 7.20195 19.021 7.22786 21.06 9.13755C22.758 10.7133 23.392 13.0117 23.457 15.3291H17.918ZM19.6351 23.5461C19.018 23.8723 18.3108 24.3329 17.6178 24.4165C17.4315 24.439 17.2774 24.4462 17.222 24.4483C17.2068 24.4488 17.1924 24.449 17.1772 24.449H6.73V16.6717H12.234V20.4821H14.325C15.112 20.4332 15.874 20.4073 16.636 19.6737C17.318 19.0348 17.748 17.9335 17.888 16.6717H23.434C23.2367 19.5812 22.1012 22.2427 19.6351 23.5461ZM26.952 6.65376L16.243 0.491127C15.101 -0.163709 13.695 -0.163709 12.553 0.491127L1.847 6.65376C0.704 7.31059 0 8.52657 0 9.83824V22.1625C0 23.4772 0.704 24.6902 1.847 25.345L12.553 31.5066C13.695 32.1645 15.101 32.1645 16.243 31.5066L26.952 25.345C28.092 24.6902 28.796 23.4772 28.796 22.1625V9.83824C28.796 8.52657 28.092 7.31059 26.952 6.65376Z" fill="#0CC9EB"/>
<path fill-rule="evenodd" clip-rule="evenodd" d="M44.6537 11.1878V20.493H46.7457C47.5357 20.4422 48.2977 20.4193 49.0607 19.6827C49.8997 18.8963 50.3667 17.4212 50.3667 15.8035C50.3667 14.7969 50.1947 13.9636 49.9237 13.25C49.1837 11.2875 47.8047 11.2366 46.7227 11.1878H44.6537ZM39.1367 7.13721H45.0467C48.9377 7.18605 51.4517 7.21296 53.4947 9.12564C55.2927 10.7941 55.9077 13.2759 55.9077 15.7318C55.9077 19.3897 54.5287 22.8473 51.0327 24.0044C49.6287 24.4699 48.0767 24.4699 46.3767 24.4699H39.1367V7.13721Z" fill="white"/>
<path fill-rule="evenodd" clip-rule="evenodd" d="M63.0352 24.4689H68.5512V7.13623H63.0352V24.4689Z" fill="white"/>
<path fill-rule="evenodd" clip-rule="evenodd" d="M89.5258 23.2407C88.7388 23.8328 87.2358 24.9092 84.3048 24.9092C82.9998 24.9092 81.9158 24.664 81.0278 24.2983C79.3798 23.6344 75.7578 21.3012 75.7578 15.903C75.7578 10.9215 78.9838 6.42627 85.0438 6.42627C87.6538 6.42627 90.3378 7.33527 92.0618 9.02568C93.0968 10.0344 93.4408 10.9653 93.7358 11.7796L88.8098 13.1551C88.6898 12.6109 88.5638 12.0228 88.0228 11.4816C87.5048 10.9653 86.6208 10.5766 85.4618 10.5766C84.1558 10.5766 83.2458 11.065 82.7028 11.5813C81.3478 12.8331 81.3478 14.8953 81.3478 15.6807C81.3478 16.7133 81.4218 18.3798 82.6558 19.6317C83.7378 20.7639 85.0198 20.7849 85.6098 20.7849C86.1018 20.7849 87.3588 20.736 88.2198 19.8539C88.6898 19.3606 88.7608 18.8961 88.8868 18.3589H85.6588V14.8724H93.6388V24.4448H89.5258V23.2407Z" fill="white"/>
<path fill-rule="evenodd" clip-rule="evenodd" d="M101.902 24.4689H107.418V7.13623H101.902V24.4689Z" fill="white"/>
<path fill-rule="evenodd" clip-rule="evenodd" d="M118.344 18.4803C118.836 19.2398 119.256 19.8787 120.757 20.3691C121.472 20.6142 122.36 20.7628 123.196 20.7628C123.639 20.7628 125.806 20.7139 125.806 19.4621C125.806 19.3395 125.806 18.7026 124.847 18.3806C124.231 18.1584 121.029 17.5942 120.314 17.4228C118.713 17.0062 115.585 16.0244 115.585 12.3665C115.585 11.608 115.757 10.8206 116.077 10.1359C117.21 7.58036 120.142 6.57568 123.27 6.57568C125.265 6.57568 127.088 6.96439 128.516 7.68003C129.822 8.31593 130.462 9.00366 131.077 9.64254L127.629 12.513C127.357 12.1682 127.062 11.7794 126.298 11.3877C125.29 10.8944 123.959 10.7488 123.073 10.7488C122.136 10.7488 121.101 10.994 121.101 11.8741C121.101 12.7114 121.988 12.9346 123.49 13.2047C127.357 13.8646 131.2 14.5523 131.2 18.8461C131.2 20.6631 130.437 21.9389 129.65 22.7532C127.457 24.9868 123.959 24.9868 122.998 24.9868C121.693 24.9868 120.314 24.8642 118.959 24.4705C116.2 23.6841 114.92 22.1372 114.133 21.1794L118.344 18.4803Z" fill="#0CC9EB"/>
<path fill-rule="evenodd" clip-rule="evenodd" d="M138.375 7.13721H143.891V17.9654C143.891 18.702 143.916 19.4615 144.531 20.0495C144.975 20.519 145.639 20.6904 146.28 20.6904C147.142 20.6904 147.711 20.3705 148.029 20.0764C148.67 19.4615 148.693 18.702 148.693 17.9654V7.13721H154.236V16.3687C154.236 18.3591 154.236 20.9356 152.19 22.8752C150.937 24.0513 148.916 24.9354 146.231 24.9354C143.67 24.9354 141.454 24.1001 140.172 22.8752C138.449 21.2067 138.423 19.2661 138.375 17.4491V7.13721Z" fill="#0CC9EB"/>
<path fill-rule="evenodd" clip-rule="evenodd" d="M168.118 10.7492V14.7958H170.408C171.318 14.7958 173.067 14.752 173.067 12.7845C173.067 10.796 171.344 10.7492 170.385 10.7492H168.118ZM162.602 7.11523H171.269C172.921 7.11523 174.498 7.2149 175.556 7.65246C177.87 8.6382 178.559 10.9924 178.559 12.6609C178.559 13.3257 178.485 14.8716 177.231 16.1474C176.539 16.8839 175.803 17.157 174.988 17.471L179.226 24.4719H173.118L169.744 18.3581H168.118V24.4719H162.602V7.11523Z" fill="#0CC9EB"/>
<path fill-rule="evenodd" clip-rule="evenodd" d="M186.234 7.13721H200.002V10.9446H191.75V13.5211H199.461V17.2787H191.75V20.7133H199.993V24.4699H186.234V7.13721Z" fill="#0CC9EB"/>
</svg>
